M48
; DRILL file {KiCad (5.1.9)-1} date 10/25/21 23:05:23
; FORMAT={-:-/ absolute / inch / decimal}
; #@! TF.CreationDate,2021-10-25T23:05:23-04:00
; #@! TF.GenerationSoftware,Kicad,Pcbnew,(5.1.9)-1
FMAT,2
INCH
T1C0.0315
T2C0.0354
T3C0.0394
%
G90
G05
T1
X4.6457Y-2.4409
X4.6457Y-2.574
X4.6457Y-2.874
X4.6457Y-3.5433
X4.7441Y-2.4409
X4.7457Y-2.574
X4.7457Y-2.874
X4.8457Y-2.574
X4.8457Y-2.874
X4.9457Y-2.574
X4.9457Y-2.874
X5.0457Y-2.574
X5.0457Y-2.874
X5.0457Y-3.5433
X5.1457Y-2.574
X5.1457Y-2.874
X5.2457Y-2.574
X5.2457Y-2.874
X5.3457Y-2.574
X5.3457Y-2.874
X5.5449Y-3.4252
X5.5449Y-3.5433
X5.5512Y-3.2382
X5.5661Y-2.3102
X5.5661Y-2.4102
X5.5661Y-2.5102
X5.5661Y-2.6102
X5.5661Y-2.7102
X5.5661Y-2.8102
X5.5661Y-2.9102
X5.5661Y-3.0102
X5.5661Y-3.1102
X5.6496Y-3.2382
X5.8661Y-2.3102
X5.8661Y-2.4102
X5.8661Y-2.5102
X5.8661Y-2.6102
X5.8661Y-2.7102
X5.8661Y-2.8102
X5.8661Y-2.9102
X5.8661Y-3.0102
X5.8661Y-3.1102
X5.9449Y-3.4252
X5.9449Y-3.5433
X6.0236Y-2.3276
X6.0236Y-2.5197
X6.1417Y-2.702
X6.1417Y-3.002
X6.1909Y-2.3228
X6.1909Y-2.5197
X6.2205Y-3.1433
X6.2205Y-3.5433
X6.2417Y-2.702
X6.2417Y-3.002
X6.3417Y-2.702
X6.3417Y-3.002
X6.378Y-3.1102
X6.3878Y-2.3228
X6.3878Y-2.5197
X6.4417Y-2.702
X6.4417Y-3.002
X6.4764Y-3.1102
T2
X5.2362Y-3.5433
X5.3362Y-3.5433
T3
X4.6457Y-3.0283
X4.6457Y-3.1283
X4.6457Y-3.2283
X4.7557Y-1.8976
X4.8425Y-3.0283
X4.8425Y-3.1283
X4.8425Y-3.2283
X4.8557Y-1.8976
X4.9557Y-1.8976
X5.0394Y-3.0283
X5.0394Y-3.1283
X5.0394Y-3.2283
X5.0557Y-1.8976
X5.1157Y-3.7976
X5.1557Y-1.8976
X5.2157Y-3.7976
X5.2362Y-3.0283
X5.2362Y-3.1283
X5.2362Y-3.2283
X5.2557Y-1.8976
X5.3157Y-3.7976
X5.3557Y-1.8976
X5.4157Y-3.7976
X5.4557Y-1.8976
X5.5157Y-3.7976
X5.5557Y-1.8976
X5.6157Y-3.7976
X5.6557Y-1.8976
X5.7157Y-3.7976
X5.8079Y-1.8976
X5.8157Y-3.7976
X5.9079Y-1.8976
X6.0079Y-1.8976
X6.0157Y-3.7976
X6.063Y-3.3425
X6.063Y-3.4425
X6.063Y-3.5425
X6.063Y-3.6425
X6.1079Y-1.8976
X6.1157Y-3.7976
X6.2079Y-1.8976
X6.2157Y-3.7976
X6.3079Y-1.8976
X6.3157Y-3.7976
X6.378Y-3.3425
X6.378Y-3.4425
X6.378Y-3.5425
X6.378Y-3.6425
X6.4079Y-1.8976
X6.4157Y-3.7976
X6.5079Y-1.8976
X6.5157Y-3.7976
T0
M30
