%TF.GenerationSoftware,KiCad,Pcbnew,(5.1.9)-1*%
%TF.CreationDate,2021-10-25T23:02:33-04:00*%
%TF.ProjectId,CAN-Node-Shield,43414e2d-4e6f-4646-952d-536869656c64,rev?*%
%TF.SameCoordinates,Original*%
%TF.FileFunction,Legend,Bot*%
%TF.FilePolarity,Positive*%
%FSLAX46Y46*%
G04 Gerber Fmt 4.6, Leading zero omitted, Abs format (unit mm)*
G04 Created by KiCad (PCBNEW (5.1.9)-1) date 2021-10-25 23:02:33*
%MOMM*%
%LPD*%
G01*
G04 APERTURE LIST*
%ADD10C,0.150000*%
G04 APERTURE END LIST*
D10*
X168452380Y-67166666D02*
X167452380Y-67166666D01*
X167452380Y-67404761D01*
X167500000Y-67547619D01*
X167595238Y-67642857D01*
X167690476Y-67690476D01*
X167880952Y-67738095D01*
X168023809Y-67738095D01*
X168214285Y-67690476D01*
X168309523Y-67642857D01*
X168404761Y-67547619D01*
X168452380Y-67404761D01*
X168452380Y-67166666D01*
X168404761Y-68547619D02*
X168452380Y-68452380D01*
X168452380Y-68261904D01*
X168404761Y-68166666D01*
X168309523Y-68119047D01*
X167928571Y-68119047D01*
X167833333Y-68166666D01*
X167785714Y-68261904D01*
X167785714Y-68452380D01*
X167833333Y-68547619D01*
X167928571Y-68595238D01*
X168023809Y-68595238D01*
X168119047Y-68119047D01*
X168404761Y-68976190D02*
X168452380Y-69071428D01*
X168452380Y-69261904D01*
X168404761Y-69357142D01*
X168309523Y-69404761D01*
X168261904Y-69404761D01*
X168166666Y-69357142D01*
X168119047Y-69261904D01*
X168119047Y-69119047D01*
X168071428Y-69023809D01*
X167976190Y-68976190D01*
X167928571Y-68976190D01*
X167833333Y-69023809D01*
X167785714Y-69119047D01*
X167785714Y-69261904D01*
X167833333Y-69357142D01*
X168452380Y-69833333D02*
X167785714Y-69833333D01*
X167452380Y-69833333D02*
X167500000Y-69785714D01*
X167547619Y-69833333D01*
X167500000Y-69880952D01*
X167452380Y-69833333D01*
X167547619Y-69833333D01*
X167785714Y-70738095D02*
X168595238Y-70738095D01*
X168690476Y-70690476D01*
X168738095Y-70642857D01*
X168785714Y-70547619D01*
X168785714Y-70404761D01*
X168738095Y-70309523D01*
X168404761Y-70738095D02*
X168452380Y-70642857D01*
X168452380Y-70452380D01*
X168404761Y-70357142D01*
X168357142Y-70309523D01*
X168261904Y-70261904D01*
X167976190Y-70261904D01*
X167880952Y-70309523D01*
X167833333Y-70357142D01*
X167785714Y-70452380D01*
X167785714Y-70642857D01*
X167833333Y-70738095D01*
X167785714Y-71214285D02*
X168452380Y-71214285D01*
X167880952Y-71214285D02*
X167833333Y-71261904D01*
X167785714Y-71357142D01*
X167785714Y-71500000D01*
X167833333Y-71595238D01*
X167928571Y-71642857D01*
X168452380Y-71642857D01*
X168404761Y-72500000D02*
X168452380Y-72404761D01*
X168452380Y-72214285D01*
X168404761Y-72119047D01*
X168309523Y-72071428D01*
X167928571Y-72071428D01*
X167833333Y-72119047D01*
X167785714Y-72214285D01*
X167785714Y-72404761D01*
X167833333Y-72500000D01*
X167928571Y-72547619D01*
X168023809Y-72547619D01*
X168119047Y-72071428D01*
X168452380Y-73404761D02*
X167452380Y-73404761D01*
X168404761Y-73404761D02*
X168452380Y-73309523D01*
X168452380Y-73119047D01*
X168404761Y-73023809D01*
X168357142Y-72976190D01*
X168261904Y-72928571D01*
X167976190Y-72928571D01*
X167880952Y-72976190D01*
X167833333Y-73023809D01*
X167785714Y-73119047D01*
X167785714Y-73309523D01*
X167833333Y-73404761D01*
X167928571Y-74976190D02*
X167976190Y-75119047D01*
X168023809Y-75166666D01*
X168119047Y-75214285D01*
X168261904Y-75214285D01*
X168357142Y-75166666D01*
X168404761Y-75119047D01*
X168452380Y-75023809D01*
X168452380Y-74642857D01*
X167452380Y-74642857D01*
X167452380Y-74976190D01*
X167500000Y-75071428D01*
X167547619Y-75119047D01*
X167642857Y-75166666D01*
X167738095Y-75166666D01*
X167833333Y-75119047D01*
X167880952Y-75071428D01*
X167928571Y-74976190D01*
X167928571Y-74642857D01*
X167785714Y-75547619D02*
X168452380Y-75785714D01*
X167785714Y-76023809D02*
X168452380Y-75785714D01*
X168690476Y-75690476D01*
X168738095Y-75642857D01*
X168785714Y-75547619D01*
X168452380Y-77166666D02*
X167452380Y-77166666D01*
X167452380Y-77404761D01*
X167500000Y-77547619D01*
X167595238Y-77642857D01*
X167690476Y-77690476D01*
X167880952Y-77738095D01*
X168023809Y-77738095D01*
X168214285Y-77690476D01*
X168309523Y-77642857D01*
X168404761Y-77547619D01*
X168452380Y-77404761D01*
X168452380Y-77166666D01*
X168404761Y-78547619D02*
X168452380Y-78452380D01*
X168452380Y-78261904D01*
X168404761Y-78166666D01*
X168309523Y-78119047D01*
X167928571Y-78119047D01*
X167833333Y-78166666D01*
X167785714Y-78261904D01*
X167785714Y-78452380D01*
X167833333Y-78547619D01*
X167928571Y-78595238D01*
X168023809Y-78595238D01*
X168119047Y-78119047D01*
X168452380Y-79023809D02*
X167785714Y-79023809D01*
X167976190Y-79023809D02*
X167880952Y-79071428D01*
X167833333Y-79119047D01*
X167785714Y-79214285D01*
X167785714Y-79309523D01*
X168404761Y-80023809D02*
X168452380Y-79928571D01*
X168452380Y-79738095D01*
X168404761Y-79642857D01*
X168309523Y-79595238D01*
X167928571Y-79595238D01*
X167833333Y-79642857D01*
X167785714Y-79738095D01*
X167785714Y-79928571D01*
X167833333Y-80023809D01*
X167928571Y-80071428D01*
X168023809Y-80071428D01*
X168119047Y-79595238D01*
X168452380Y-80500000D02*
X167452380Y-80500000D01*
X168071428Y-80595238D02*
X168452380Y-80880952D01*
X167785714Y-80880952D02*
X168166666Y-80500000D01*
X168452380Y-82071428D02*
X167452380Y-82071428D01*
X167452380Y-82452380D01*
X167500000Y-82547619D01*
X167547619Y-82595238D01*
X167642857Y-82642857D01*
X167785714Y-82642857D01*
X167880952Y-82595238D01*
X167928571Y-82547619D01*
X167976190Y-82452380D01*
X167976190Y-82071428D01*
X168452380Y-83071428D02*
X167785714Y-83071428D01*
X167976190Y-83071428D02*
X167880952Y-83119047D01*
X167833333Y-83166666D01*
X167785714Y-83261904D01*
X167785714Y-83357142D01*
X168404761Y-84071428D02*
X168452380Y-83976190D01*
X168452380Y-83785714D01*
X168404761Y-83690476D01*
X168309523Y-83642857D01*
X167928571Y-83642857D01*
X167833333Y-83690476D01*
X167785714Y-83785714D01*
X167785714Y-83976190D01*
X167833333Y-84071428D01*
X167928571Y-84119047D01*
X168023809Y-84119047D01*
X168119047Y-83642857D01*
X168404761Y-84500000D02*
X168452380Y-84595238D01*
X168452380Y-84785714D01*
X168404761Y-84880952D01*
X168309523Y-84928571D01*
X168261904Y-84928571D01*
X168166666Y-84880952D01*
X168119047Y-84785714D01*
X168119047Y-84642857D01*
X168071428Y-84547619D01*
X167976190Y-84500000D01*
X167928571Y-84500000D01*
X167833333Y-84547619D01*
X167785714Y-84642857D01*
X167785714Y-84785714D01*
X167833333Y-84880952D01*
X167785714Y-85214285D02*
X167785714Y-85595238D01*
X167452380Y-85357142D02*
X168309523Y-85357142D01*
X168404761Y-85404761D01*
X168452380Y-85500000D01*
X168452380Y-85595238D01*
X168404761Y-86309523D02*
X168452380Y-86214285D01*
X168452380Y-86023809D01*
X168404761Y-85928571D01*
X168309523Y-85880952D01*
X167928571Y-85880952D01*
X167833333Y-85928571D01*
X167785714Y-86023809D01*
X167785714Y-86214285D01*
X167833333Y-86309523D01*
X167928571Y-86357142D01*
X168023809Y-86357142D01*
X168119047Y-85880952D01*
X168452380Y-86785714D02*
X167785714Y-86785714D01*
X167976190Y-86785714D02*
X167880952Y-86833333D01*
X167833333Y-86880952D01*
X167785714Y-86976190D01*
X167785714Y-87071428D01*
X168452380Y-87833333D02*
X167928571Y-87833333D01*
X167833333Y-87785714D01*
X167785714Y-87690476D01*
X167785714Y-87500000D01*
X167833333Y-87404761D01*
X168404761Y-87833333D02*
X168452380Y-87738095D01*
X168452380Y-87500000D01*
X168404761Y-87404761D01*
X168309523Y-87357142D01*
X168214285Y-87357142D01*
X168119047Y-87404761D01*
X168071428Y-87500000D01*
X168071428Y-87738095D01*
X168023809Y-87833333D01*
M02*
